<svg xmlns="http://www.w3.org/2000/svg" viewBox="0 0 512 512" width="512" height="512">
  <title>T-Orbit - Platform</title>
  <desc>Theme-aware icon representing a plugin-based development platform</desc>

  <rect class="bg" width="512" height="512" rx="120" ry="120"/>

  <circle class="orbit-strong" cx="256" cy="256" r="190" fill="none" stroke-width="10"/>
  <circle class="orbit-soft" cx="256" cy="256" r="150" fill="none" stroke-width="8" stroke-dasharray="0 22 42"/>
  <circle class="orbit-faint" cx="256" cy="256" r="110" fill="none" stroke-width="6"/>

  <circle class="core-deep" cx="256" cy="256" r="74"/>
  <circle class="core-main" cx="256" cy="256" r="52"/>
  <circle class="core-center" cx="256" cy="256" r="26"/>

  <circle class="slot-outline" cx="256" cy="86" r="18" stroke-width="4"/>
  <circle class="slot-outline" cx="426" cy="256" r="18" stroke-width="4"/>
  <circle class="slot-outline" cx="256" cy="426" r="18" stroke-width="4"/>
  <circle class="slot-outline" cx="86" cy="256" r="18" stroke-width="4"/>

  <circle class="slot-filled-main" cx="376" cy="136" r="18" stroke-width="3"/>
  <circle class="slot-filled-alt" cx="376" cy="376" r="18" stroke-width="3"/>
  <circle class="slot-filled-soft" cx="136" cy="376" r="18" stroke-width="3"/>
  <circle class="slot-filled-strong" cx="136" cy="136" r="18" stroke-width="3"/>

  <circle class="orbit-dot" cx="330" cy="96" r="6"/>
  <circle class="orbit-dot" cx="430" cy="180" r="6"/>
  <circle class="orbit-dot" cx="430" cy="332" r="6"/>
  <circle class="orbit-dot" cx="330" cy="416" r="6"/>
  <circle class="orbit-dot" cx="182" cy="416" r="6"/>
  <circle class="orbit-dot" cx="82" cy="332" r="6"/>
  <circle class="orbit-dot" cx="82" cy="180" r="6"/>
  <circle class="orbit-dot" cx="182" cy="96" r="6"/>
</svg>
